<mxfile host="app.diagrams.net" modified="2023-05-07T17:51:30.752Z" agent="Mozilla/5.0 (Windows NT 10.0; Win64; x64) AppleWebKit/537.36 (KHTML, like Gecko) Chrome/113.0.0.0 Safari/537.36" etag="KTZcTgAgitZfPEE2mg9P" version="21.2.3" type="device">
  <diagram name="Page-1" id="ktkJlVqYEjQXZmO8xF6W">
    <mxGraphModel dx="1221" dy="694" grid="1" gridSize="10" guides="1" tooltips="1" connect="1" arrows="1" fold="1" page="1" pageScale="1" pageWidth="850" pageHeight="1100" math="0" shadow="0">
      <root>
        <mxCell id="0" />
        <mxCell id="1" parent="0" />
        <mxCell id="rGsg8e2gAJntpX7pAh_1-5" value="XDF Files" style="swimlane;whiteSpace=wrap;html=1;startSize=40;" parent="1" vertex="1">
          <mxGeometry x="480" y="60" width="200" height="200" as="geometry" />
        </mxCell>
        <mxCell id="rGsg8e2gAJntpX7pAh_1-6" value="trial 1&amp;nbsp;" style="text;html=1;align=center;verticalAlign=middle;resizable=0;points=[];autosize=1;strokeColor=none;fillColor=none;" parent="rGsg8e2gAJntpX7pAh_1-5" vertex="1">
          <mxGeometry x="70" y="50" width="60" height="30" as="geometry" />
        </mxCell>
        <mxCell id="rGsg8e2gAJntpX7pAh_1-7" value="trial 2" style="text;html=1;align=center;verticalAlign=middle;resizable=0;points=[];autosize=1;strokeColor=none;fillColor=none;" parent="rGsg8e2gAJntpX7pAh_1-5" vertex="1">
          <mxGeometry x="75" y="80" width="50" height="30" as="geometry" />
        </mxCell>
        <mxCell id="rGsg8e2gAJntpX7pAh_1-8" value="trial 3" style="text;html=1;align=center;verticalAlign=middle;resizable=0;points=[];autosize=1;strokeColor=none;fillColor=none;" parent="rGsg8e2gAJntpX7pAh_1-5" vertex="1">
          <mxGeometry x="75" y="110" width="50" height="30" as="geometry" />
        </mxCell>
        <mxCell id="rGsg8e2gAJntpX7pAh_1-9" value="..." style="text;html=1;align=center;verticalAlign=middle;resizable=0;points=[];autosize=1;strokeColor=none;fillColor=none;" parent="rGsg8e2gAJntpX7pAh_1-5" vertex="1">
          <mxGeometry x="85" y="140" width="30" height="30" as="geometry" />
        </mxCell>
        <mxCell id="rGsg8e2gAJntpX7pAh_1-10" value="..." style="text;html=1;align=center;verticalAlign=middle;resizable=0;points=[];autosize=1;strokeColor=none;fillColor=none;" parent="rGsg8e2gAJntpX7pAh_1-5" vertex="1">
          <mxGeometry x="85" y="170" width="30" height="30" as="geometry" />
        </mxCell>
        <mxCell id="rGsg8e2gAJntpX7pAh_1-27" style="edgeStyle=orthogonalEdgeStyle;rounded=0;orthogonalLoop=1;jettySize=auto;html=1;exitX=0.5;exitY=1;exitDx=0;exitDy=0;" parent="1" source="rGsg8e2gAJntpX7pAh_1-11" target="rGsg8e2gAJntpX7pAh_1-23" edge="1">
          <mxGeometry relative="1" as="geometry" />
        </mxCell>
        <mxCell id="rGsg8e2gAJntpX7pAh_1-28" style="edgeStyle=orthogonalEdgeStyle;rounded=0;orthogonalLoop=1;jettySize=auto;html=1;exitX=0.5;exitY=1;exitDx=0;exitDy=0;" parent="1" source="rGsg8e2gAJntpX7pAh_1-11" target="rGsg8e2gAJntpX7pAh_1-19" edge="1">
          <mxGeometry relative="1" as="geometry" />
        </mxCell>
        <mxCell id="rGsg8e2gAJntpX7pAh_1-29" style="edgeStyle=orthogonalEdgeStyle;rounded=0;orthogonalLoop=1;jettySize=auto;html=1;exitX=0.5;exitY=1;exitDx=0;exitDy=0;entryX=0.5;entryY=0;entryDx=0;entryDy=0;" parent="1" source="rGsg8e2gAJntpX7pAh_1-11" target="rGsg8e2gAJntpX7pAh_1-20" edge="1">
          <mxGeometry relative="1" as="geometry" />
        </mxCell>
        <mxCell id="rGsg8e2gAJntpX7pAh_1-30" style="edgeStyle=orthogonalEdgeStyle;rounded=0;orthogonalLoop=1;jettySize=auto;html=1;exitX=0.5;exitY=1;exitDx=0;exitDy=0;entryX=0.5;entryY=0;entryDx=0;entryDy=0;" parent="1" source="rGsg8e2gAJntpX7pAh_1-11" target="rGsg8e2gAJntpX7pAh_1-21" edge="1">
          <mxGeometry relative="1" as="geometry" />
        </mxCell>
        <mxCell id="rGsg8e2gAJntpX7pAh_1-34" value="Segmentation" style="edgeLabel;html=1;align=center;verticalAlign=middle;resizable=0;points=[];" parent="rGsg8e2gAJntpX7pAh_1-30" vertex="1" connectable="0">
          <mxGeometry x="0.2667" y="-3" relative="1" as="geometry">
            <mxPoint x="-37" y="-55" as="offset" />
          </mxGeometry>
        </mxCell>
        <mxCell id="rGsg8e2gAJntpX7pAh_1-31" style="edgeStyle=orthogonalEdgeStyle;rounded=0;orthogonalLoop=1;jettySize=auto;html=1;exitX=0.5;exitY=1;exitDx=0;exitDy=0;" parent="1" source="rGsg8e2gAJntpX7pAh_1-11" target="rGsg8e2gAJntpX7pAh_1-22" edge="1">
          <mxGeometry relative="1" as="geometry" />
        </mxCell>
        <mxCell id="rGsg8e2gAJntpX7pAh_1-32" style="edgeStyle=orthogonalEdgeStyle;rounded=0;orthogonalLoop=1;jettySize=auto;html=1;exitX=0.5;exitY=1;exitDx=0;exitDy=0;" parent="1" source="rGsg8e2gAJntpX7pAh_1-11" target="rGsg8e2gAJntpX7pAh_1-24" edge="1">
          <mxGeometry relative="1" as="geometry" />
        </mxCell>
        <mxCell id="rGsg8e2gAJntpX7pAh_1-33" style="edgeStyle=orthogonalEdgeStyle;rounded=0;orthogonalLoop=1;jettySize=auto;html=1;exitX=0.5;exitY=1;exitDx=0;exitDy=0;entryX=0.5;entryY=0;entryDx=0;entryDy=0;" parent="1" source="rGsg8e2gAJntpX7pAh_1-11" target="rGsg8e2gAJntpX7pAh_1-25" edge="1">
          <mxGeometry relative="1" as="geometry" />
        </mxCell>
        <mxCell id="rGsg8e2gAJntpX7pAh_1-11" value="Pre-processed CSV files" style="swimlane;whiteSpace=wrap;html=1;startSize=40;" parent="1" vertex="1">
          <mxGeometry x="480" y="290" width="200" height="200" as="geometry" />
        </mxCell>
        <mxCell id="rGsg8e2gAJntpX7pAh_1-12" value="trial 1&amp;nbsp;" style="text;html=1;align=center;verticalAlign=middle;resizable=0;points=[];autosize=1;strokeColor=none;fillColor=none;" parent="rGsg8e2gAJntpX7pAh_1-11" vertex="1">
          <mxGeometry x="70" y="50" width="60" height="30" as="geometry" />
        </mxCell>
        <mxCell id="rGsg8e2gAJntpX7pAh_1-13" value="trial 2" style="text;html=1;align=center;verticalAlign=middle;resizable=0;points=[];autosize=1;strokeColor=none;fillColor=none;" parent="rGsg8e2gAJntpX7pAh_1-11" vertex="1">
          <mxGeometry x="75" y="80" width="50" height="30" as="geometry" />
        </mxCell>
        <mxCell id="rGsg8e2gAJntpX7pAh_1-14" value="trial 3" style="text;html=1;align=center;verticalAlign=middle;resizable=0;points=[];autosize=1;strokeColor=none;fillColor=none;" parent="rGsg8e2gAJntpX7pAh_1-11" vertex="1">
          <mxGeometry x="75" y="110" width="50" height="30" as="geometry" />
        </mxCell>
        <mxCell id="rGsg8e2gAJntpX7pAh_1-15" value="..." style="text;html=1;align=center;verticalAlign=middle;resizable=0;points=[];autosize=1;strokeColor=none;fillColor=none;" parent="rGsg8e2gAJntpX7pAh_1-11" vertex="1">
          <mxGeometry x="85" y="140" width="30" height="30" as="geometry" />
        </mxCell>
        <mxCell id="rGsg8e2gAJntpX7pAh_1-16" value="..." style="text;html=1;align=center;verticalAlign=middle;resizable=0;points=[];autosize=1;strokeColor=none;fillColor=none;" parent="rGsg8e2gAJntpX7pAh_1-11" vertex="1">
          <mxGeometry x="85" y="160" width="30" height="30" as="geometry" />
        </mxCell>
        <mxCell id="rGsg8e2gAJntpX7pAh_1-18" style="edgeStyle=orthogonalEdgeStyle;rounded=0;orthogonalLoop=1;jettySize=auto;html=1;entryX=0.5;entryY=0;entryDx=0;entryDy=0;" parent="1" source="rGsg8e2gAJntpX7pAh_1-10" target="rGsg8e2gAJntpX7pAh_1-11" edge="1">
          <mxGeometry relative="1" as="geometry" />
        </mxCell>
        <mxCell id="rGsg8e2gAJntpX7pAh_1-56" style="edgeStyle=orthogonalEdgeStyle;rounded=0;orthogonalLoop=1;jettySize=auto;html=1;exitX=0.5;exitY=1;exitDx=0;exitDy=0;entryX=0.5;entryY=0;entryDx=0;entryDy=0;" parent="1" source="rGsg8e2gAJntpX7pAh_1-19" target="rGsg8e2gAJntpX7pAh_1-40" edge="1">
          <mxGeometry relative="1" as="geometry" />
        </mxCell>
        <mxCell id="rGsg8e2gAJntpX7pAh_1-57" style="edgeStyle=orthogonalEdgeStyle;rounded=0;orthogonalLoop=1;jettySize=auto;html=1;exitX=0.5;exitY=1;exitDx=0;exitDy=0;" parent="1" source="rGsg8e2gAJntpX7pAh_1-19" target="rGsg8e2gAJntpX7pAh_1-41" edge="1">
          <mxGeometry relative="1" as="geometry" />
        </mxCell>
        <mxCell id="rGsg8e2gAJntpX7pAh_1-19" value="100" style="rounded=0;whiteSpace=wrap;html=1;" parent="1" vertex="1">
          <mxGeometry x="200" y="640" width="120" height="40" as="geometry" />
        </mxCell>
        <mxCell id="rGsg8e2gAJntpX7pAh_1-58" style="edgeStyle=orthogonalEdgeStyle;rounded=0;orthogonalLoop=1;jettySize=auto;html=1;exitX=0.5;exitY=1;exitDx=0;exitDy=0;" parent="1" source="rGsg8e2gAJntpX7pAh_1-20" target="rGsg8e2gAJntpX7pAh_1-42" edge="1">
          <mxGeometry relative="1" as="geometry" />
        </mxCell>
        <mxCell id="rGsg8e2gAJntpX7pAh_1-59" style="edgeStyle=orthogonalEdgeStyle;rounded=0;orthogonalLoop=1;jettySize=auto;html=1;exitX=0.5;exitY=1;exitDx=0;exitDy=0;" parent="1" source="rGsg8e2gAJntpX7pAh_1-20" target="rGsg8e2gAJntpX7pAh_1-43" edge="1">
          <mxGeometry relative="1" as="geometry" />
        </mxCell>
        <mxCell id="rGsg8e2gAJntpX7pAh_1-20" value="150" style="rounded=0;whiteSpace=wrap;html=1;" parent="1" vertex="1">
          <mxGeometry x="360" y="640" width="120" height="40" as="geometry" />
        </mxCell>
        <mxCell id="rGsg8e2gAJntpX7pAh_1-60" style="edgeStyle=orthogonalEdgeStyle;rounded=0;orthogonalLoop=1;jettySize=auto;html=1;exitX=0.5;exitY=1;exitDx=0;exitDy=0;entryX=0.4;entryY=0.2;entryDx=0;entryDy=0;entryPerimeter=0;" parent="1" source="rGsg8e2gAJntpX7pAh_1-21" target="rGsg8e2gAJntpX7pAh_1-48" edge="1">
          <mxGeometry relative="1" as="geometry" />
        </mxCell>
        <mxCell id="rGsg8e2gAJntpX7pAh_1-61" style="edgeStyle=orthogonalEdgeStyle;rounded=0;orthogonalLoop=1;jettySize=auto;html=1;exitX=0.5;exitY=1;exitDx=0;exitDy=0;entryX=0.5;entryY=0;entryDx=0;entryDy=0;" parent="1" source="rGsg8e2gAJntpX7pAh_1-21" target="rGsg8e2gAJntpX7pAh_1-49" edge="1">
          <mxGeometry relative="1" as="geometry" />
        </mxCell>
        <mxCell id="rGsg8e2gAJntpX7pAh_1-21" value="200" style="rounded=0;whiteSpace=wrap;html=1;" parent="1" vertex="1">
          <mxGeometry x="520" y="640" width="120" height="40" as="geometry" />
        </mxCell>
        <mxCell id="rGsg8e2gAJntpX7pAh_1-62" style="edgeStyle=orthogonalEdgeStyle;rounded=0;orthogonalLoop=1;jettySize=auto;html=1;exitX=0.5;exitY=1;exitDx=0;exitDy=0;entryX=0.5;entryY=0;entryDx=0;entryDy=0;" parent="1" source="rGsg8e2gAJntpX7pAh_1-22" target="rGsg8e2gAJntpX7pAh_1-50" edge="1">
          <mxGeometry relative="1" as="geometry" />
        </mxCell>
        <mxCell id="rGsg8e2gAJntpX7pAh_1-63" style="edgeStyle=orthogonalEdgeStyle;rounded=0;orthogonalLoop=1;jettySize=auto;html=1;exitX=0.5;exitY=1;exitDx=0;exitDy=0;entryX=0.5;entryY=0;entryDx=0;entryDy=0;" parent="1" source="rGsg8e2gAJntpX7pAh_1-22" target="rGsg8e2gAJntpX7pAh_1-51" edge="1">
          <mxGeometry relative="1" as="geometry" />
        </mxCell>
        <mxCell id="rGsg8e2gAJntpX7pAh_1-22" value="250" style="rounded=0;whiteSpace=wrap;html=1;" parent="1" vertex="1">
          <mxGeometry x="680" y="640" width="120" height="40" as="geometry" />
        </mxCell>
        <mxCell id="rGsg8e2gAJntpX7pAh_1-37" style="edgeStyle=orthogonalEdgeStyle;rounded=0;orthogonalLoop=1;jettySize=auto;html=1;exitX=0.5;exitY=1;exitDx=0;exitDy=0;entryX=0.5;entryY=0;entryDx=0;entryDy=0;" parent="1" source="rGsg8e2gAJntpX7pAh_1-23" target="rGsg8e2gAJntpX7pAh_1-35" edge="1">
          <mxGeometry relative="1" as="geometry" />
        </mxCell>
        <mxCell id="rGsg8e2gAJntpX7pAh_1-38" style="edgeStyle=orthogonalEdgeStyle;rounded=0;orthogonalLoop=1;jettySize=auto;html=1;exitX=0.5;exitY=1;exitDx=0;exitDy=0;entryX=0.5;entryY=0;entryDx=0;entryDy=0;" parent="1" source="rGsg8e2gAJntpX7pAh_1-23" target="rGsg8e2gAJntpX7pAh_1-36" edge="1">
          <mxGeometry relative="1" as="geometry" />
        </mxCell>
        <mxCell id="rGsg8e2gAJntpX7pAh_1-23" value="50" style="rounded=0;whiteSpace=wrap;html=1;" parent="1" vertex="1">
          <mxGeometry x="40" y="640" width="120" height="40" as="geometry" />
        </mxCell>
        <mxCell id="rGsg8e2gAJntpX7pAh_1-64" style="edgeStyle=orthogonalEdgeStyle;rounded=0;orthogonalLoop=1;jettySize=auto;html=1;exitX=0.5;exitY=1;exitDx=0;exitDy=0;entryX=0.5;entryY=0;entryDx=0;entryDy=0;" parent="1" source="rGsg8e2gAJntpX7pAh_1-24" target="rGsg8e2gAJntpX7pAh_1-52" edge="1">
          <mxGeometry relative="1" as="geometry" />
        </mxCell>
        <mxCell id="rGsg8e2gAJntpX7pAh_1-65" style="edgeStyle=orthogonalEdgeStyle;rounded=0;orthogonalLoop=1;jettySize=auto;html=1;exitX=0.5;exitY=1;exitDx=0;exitDy=0;entryX=0.5;entryY=0;entryDx=0;entryDy=0;" parent="1" source="rGsg8e2gAJntpX7pAh_1-24" target="rGsg8e2gAJntpX7pAh_1-53" edge="1">
          <mxGeometry relative="1" as="geometry" />
        </mxCell>
        <mxCell id="rGsg8e2gAJntpX7pAh_1-24" value="300" style="rounded=0;whiteSpace=wrap;html=1;" parent="1" vertex="1">
          <mxGeometry x="840" y="640" width="120" height="40" as="geometry" />
        </mxCell>
        <mxCell id="rGsg8e2gAJntpX7pAh_1-66" style="edgeStyle=orthogonalEdgeStyle;rounded=0;orthogonalLoop=1;jettySize=auto;html=1;exitX=0.5;exitY=1;exitDx=0;exitDy=0;entryX=0.5;entryY=0;entryDx=0;entryDy=0;" parent="1" source="rGsg8e2gAJntpX7pAh_1-25" target="rGsg8e2gAJntpX7pAh_1-54" edge="1">
          <mxGeometry relative="1" as="geometry" />
        </mxCell>
        <mxCell id="rGsg8e2gAJntpX7pAh_1-67" style="edgeStyle=orthogonalEdgeStyle;rounded=0;orthogonalLoop=1;jettySize=auto;html=1;exitX=0.5;exitY=1;exitDx=0;exitDy=0;entryX=0.5;entryY=0;entryDx=0;entryDy=0;" parent="1" source="rGsg8e2gAJntpX7pAh_1-25" target="rGsg8e2gAJntpX7pAh_1-55" edge="1">
          <mxGeometry relative="1" as="geometry" />
        </mxCell>
        <mxCell id="rGsg8e2gAJntpX7pAh_1-25" value="350" style="rounded=0;whiteSpace=wrap;html=1;" parent="1" vertex="1">
          <mxGeometry x="1000" y="640" width="120" height="40" as="geometry" />
        </mxCell>
        <mxCell id="rGsg8e2gAJntpX7pAh_1-35" value="Raw" style="ellipse;whiteSpace=wrap;html=1;aspect=fixed;" parent="1" vertex="1">
          <mxGeometry x="40" y="710" width="50" height="50" as="geometry" />
        </mxCell>
        <mxCell id="rGsg8e2gAJntpX7pAh_1-36" value="Filtered" style="ellipse;whiteSpace=wrap;html=1;aspect=fixed;" parent="1" vertex="1">
          <mxGeometry x="110" y="710" width="50" height="50" as="geometry" />
        </mxCell>
        <mxCell id="rGsg8e2gAJntpX7pAh_1-40" value="Raw" style="ellipse;whiteSpace=wrap;html=1;aspect=fixed;" parent="1" vertex="1">
          <mxGeometry x="200" y="710" width="50" height="50" as="geometry" />
        </mxCell>
        <mxCell id="rGsg8e2gAJntpX7pAh_1-41" value="Filtered" style="ellipse;whiteSpace=wrap;html=1;aspect=fixed;" parent="1" vertex="1">
          <mxGeometry x="270" y="710" width="50" height="50" as="geometry" />
        </mxCell>
        <mxCell id="rGsg8e2gAJntpX7pAh_1-42" value="Raw" style="ellipse;whiteSpace=wrap;html=1;aspect=fixed;" parent="1" vertex="1">
          <mxGeometry x="360" y="710" width="50" height="50" as="geometry" />
        </mxCell>
        <mxCell id="rGsg8e2gAJntpX7pAh_1-43" value="Filtered" style="ellipse;whiteSpace=wrap;html=1;aspect=fixed;" parent="1" vertex="1">
          <mxGeometry x="430" y="710" width="50" height="50" as="geometry" />
        </mxCell>
        <mxCell id="rGsg8e2gAJntpX7pAh_1-48" value="Raw" style="ellipse;whiteSpace=wrap;html=1;aspect=fixed;" parent="1" vertex="1">
          <mxGeometry x="530" y="710" width="50" height="50" as="geometry" />
        </mxCell>
        <mxCell id="rGsg8e2gAJntpX7pAh_1-49" value="Filtered" style="ellipse;whiteSpace=wrap;html=1;aspect=fixed;" parent="1" vertex="1">
          <mxGeometry x="600" y="710" width="50" height="50" as="geometry" />
        </mxCell>
        <mxCell id="rGsg8e2gAJntpX7pAh_1-50" value="Raw" style="ellipse;whiteSpace=wrap;html=1;aspect=fixed;" parent="1" vertex="1">
          <mxGeometry x="680" y="710" width="50" height="50" as="geometry" />
        </mxCell>
        <mxCell id="rGsg8e2gAJntpX7pAh_1-51" value="Filtered" style="ellipse;whiteSpace=wrap;html=1;aspect=fixed;" parent="1" vertex="1">
          <mxGeometry x="750" y="710" width="50" height="50" as="geometry" />
        </mxCell>
        <mxCell id="rGsg8e2gAJntpX7pAh_1-52" value="Raw" style="ellipse;whiteSpace=wrap;html=1;aspect=fixed;" parent="1" vertex="1">
          <mxGeometry x="840" y="710" width="50" height="50" as="geometry" />
        </mxCell>
        <mxCell id="rGsg8e2gAJntpX7pAh_1-53" value="Filtered" style="ellipse;whiteSpace=wrap;html=1;aspect=fixed;" parent="1" vertex="1">
          <mxGeometry x="910" y="710" width="50" height="50" as="geometry" />
        </mxCell>
        <mxCell id="rGsg8e2gAJntpX7pAh_1-54" value="Raw" style="ellipse;whiteSpace=wrap;html=1;aspect=fixed;" parent="1" vertex="1">
          <mxGeometry x="1000" y="710" width="50" height="50" as="geometry" />
        </mxCell>
        <mxCell id="rGsg8e2gAJntpX7pAh_1-55" value="Filtered" style="ellipse;whiteSpace=wrap;html=1;aspect=fixed;" parent="1" vertex="1">
          <mxGeometry x="1070" y="710" width="50" height="50" as="geometry" />
        </mxCell>
        <mxCell id="rGsg8e2gAJntpX7pAh_1-68" value="Raw Pipeline" style="text;html=1;strokeColor=none;fillColor=none;align=center;verticalAlign=middle;whiteSpace=wrap;rounded=0;fontStyle=1" parent="1" vertex="1">
          <mxGeometry x="310" y="300" width="80" height="30" as="geometry" />
        </mxCell>
        <mxCell id="rGsg8e2gAJntpX7pAh_1-69" value="Segmentation" style="text;html=1;strokeColor=none;fillColor=none;align=center;verticalAlign=middle;whiteSpace=wrap;rounded=0;" parent="1" vertex="1">
          <mxGeometry x="320" y="360" width="60" height="30" as="geometry" />
        </mxCell>
        <mxCell id="rGsg8e2gAJntpX7pAh_1-71" value="Feature Extraction" style="text;html=1;strokeColor=none;fillColor=none;align=center;verticalAlign=middle;whiteSpace=wrap;rounded=0;" parent="1" vertex="1">
          <mxGeometry x="320" y="430" width="60" height="30" as="geometry" />
        </mxCell>
        <mxCell id="rGsg8e2gAJntpX7pAh_1-72" value="" style="shape=flexArrow;endArrow=classic;html=1;rounded=0;exitX=0.5;exitY=1;exitDx=0;exitDy=0;entryX=0.5;entryY=0;entryDx=0;entryDy=0;" parent="1" source="rGsg8e2gAJntpX7pAh_1-69" target="rGsg8e2gAJntpX7pAh_1-71" edge="1">
          <mxGeometry width="50" height="50" relative="1" as="geometry">
            <mxPoint x="770" y="550" as="sourcePoint" />
            <mxPoint x="820" y="500" as="targetPoint" />
          </mxGeometry>
        </mxCell>
        <mxCell id="rGsg8e2gAJntpX7pAh_1-73" value="Filtered Pipeline" style="text;html=1;strokeColor=none;fillColor=none;align=center;verticalAlign=middle;whiteSpace=wrap;rounded=0;fontStyle=1" parent="1" vertex="1">
          <mxGeometry x="772.5" y="160" width="90" height="30" as="geometry" />
        </mxCell>
        <mxCell id="rGsg8e2gAJntpX7pAh_1-74" value="Segmentation" style="text;html=1;strokeColor=none;fillColor=none;align=center;verticalAlign=middle;whiteSpace=wrap;rounded=0;" parent="1" vertex="1">
          <mxGeometry x="782.5" y="205" width="60" height="30" as="geometry" />
        </mxCell>
        <mxCell id="rGsg8e2gAJntpX7pAh_1-75" value="Band Pass Filter" style="text;html=1;strokeColor=none;fillColor=none;align=center;verticalAlign=middle;whiteSpace=wrap;rounded=0;" parent="1" vertex="1">
          <mxGeometry x="765" y="275" width="95" height="30" as="geometry" />
        </mxCell>
        <mxCell id="rGsg8e2gAJntpX7pAh_1-76" value="Notch Filter" style="text;html=1;strokeColor=none;fillColor=none;align=center;verticalAlign=middle;whiteSpace=wrap;rounded=0;" parent="1" vertex="1">
          <mxGeometry x="762.5" y="345" width="95" height="30" as="geometry" />
        </mxCell>
        <mxCell id="rGsg8e2gAJntpX7pAh_1-77" value="Full wave rectifier" style="text;html=1;strokeColor=none;fillColor=none;align=center;verticalAlign=middle;whiteSpace=wrap;rounded=0;" parent="1" vertex="1">
          <mxGeometry x="757.5" y="415" width="105" height="30" as="geometry" />
        </mxCell>
        <mxCell id="rGsg8e2gAJntpX7pAh_1-78" value="Feature Extraction" style="text;html=1;strokeColor=none;fillColor=none;align=center;verticalAlign=middle;whiteSpace=wrap;rounded=0;" parent="1" vertex="1">
          <mxGeometry x="762.5" y="475" width="95" height="30" as="geometry" />
        </mxCell>
        <mxCell id="rGsg8e2gAJntpX7pAh_1-80" value="" style="shape=flexArrow;endArrow=classic;html=1;rounded=0;exitX=0.5;exitY=1;exitDx=0;exitDy=0;entryX=0.5;entryY=0;entryDx=0;entryDy=0;" parent="1" source="rGsg8e2gAJntpX7pAh_1-74" target="rGsg8e2gAJntpX7pAh_1-75" edge="1">
          <mxGeometry width="50" height="50" relative="1" as="geometry">
            <mxPoint x="1087.5" y="465" as="sourcePoint" />
            <mxPoint x="1137.5" y="415" as="targetPoint" />
          </mxGeometry>
        </mxCell>
        <mxCell id="rGsg8e2gAJntpX7pAh_1-81" value="" style="shape=flexArrow;endArrow=classic;html=1;rounded=0;exitX=0.5;exitY=1;exitDx=0;exitDy=0;" parent="1" source="rGsg8e2gAJntpX7pAh_1-75" target="rGsg8e2gAJntpX7pAh_1-76" edge="1">
          <mxGeometry width="50" height="50" relative="1" as="geometry">
            <mxPoint x="1087.5" y="465" as="sourcePoint" />
            <mxPoint x="1137.5" y="415" as="targetPoint" />
          </mxGeometry>
        </mxCell>
        <mxCell id="rGsg8e2gAJntpX7pAh_1-82" value="" style="shape=flexArrow;endArrow=classic;html=1;rounded=0;exitX=0.5;exitY=1;exitDx=0;exitDy=0;" parent="1" source="rGsg8e2gAJntpX7pAh_1-76" target="rGsg8e2gAJntpX7pAh_1-77" edge="1">
          <mxGeometry width="50" height="50" relative="1" as="geometry">
            <mxPoint x="1087.5" y="465" as="sourcePoint" />
            <mxPoint x="1137.5" y="415" as="targetPoint" />
          </mxGeometry>
        </mxCell>
        <mxCell id="rGsg8e2gAJntpX7pAh_1-83" value="" style="shape=flexArrow;endArrow=classic;html=1;rounded=0;exitX=0.5;exitY=1;exitDx=0;exitDy=0;" parent="1" source="rGsg8e2gAJntpX7pAh_1-77" target="rGsg8e2gAJntpX7pAh_1-78" edge="1">
          <mxGeometry width="50" height="50" relative="1" as="geometry">
            <mxPoint x="1087.5" y="465" as="sourcePoint" />
            <mxPoint x="1137.5" y="415" as="targetPoint" />
          </mxGeometry>
        </mxCell>
        <mxCell id="rGsg8e2gAJntpX7pAh_1-84" value="" style="endArrow=none;dashed=1;html=1;dashPattern=1 3;strokeWidth=2;rounded=0;" parent="1" edge="1">
          <mxGeometry width="50" height="50" relative="1" as="geometry">
            <mxPoint x="410" y="480" as="sourcePoint" />
            <mxPoint x="410" y="480" as="targetPoint" />
            <Array as="points">
              <mxPoint x="290" y="480" />
              <mxPoint x="290" y="280" />
              <mxPoint x="410" y="280" />
            </Array>
          </mxGeometry>
        </mxCell>
        <mxCell id="rGsg8e2gAJntpX7pAh_1-85" value="" style="endArrow=none;dashed=1;html=1;dashPattern=1 3;strokeWidth=2;rounded=0;" parent="1" edge="1">
          <mxGeometry width="50" height="50" relative="1" as="geometry">
            <mxPoint x="750" y="140" as="sourcePoint" />
            <mxPoint x="750" y="140" as="targetPoint" />
            <Array as="points">
              <mxPoint x="890" y="140" />
              <mxPoint x="890" y="325" />
              <mxPoint x="890" y="525" />
              <mxPoint x="750" y="525" />
            </Array>
          </mxGeometry>
        </mxCell>
      </root>
    </mxGraphModel>
  </diagram>
</mxfile>
